<?xml version="1.0" standalone="yes"?>

<svg version="1.1" viewBox="0.0 0.0 349.3884514435696 297.9763779527559" fill="none" stroke="none" stroke-linecap="square" stroke-miterlimit="10" xmlns="http://www.w3.org/2000/svg" xmlns:xlink="http://www.w3.org/1999/xlink"><clipPath id="p.0"><path d="m0 0l349.38846 0l0 297.97638l-349.38846 0l0 -297.97638z" clip-rule="nonzero"></path></clipPath><g clip-path="url(#p.0)"><path fill="#000000" fill-opacity="0.0" d="m0 0l349.38846 0l0 297.97638l-349.38846 0z" fill-rule="nonzero"></path><path fill="#cfe2f3" d="m0 0l348.31497 0l0 296.44095l-348.31497 0z" fill-rule="nonzero"></path><path stroke="#000000" stroke-width="1.0" stroke-linejoin="round" stroke-linecap="butt" d="m0 0l348.31497 0l0 296.44095l-348.31497 0z" fill-rule="nonzero"></path><path fill="#d9ead3" d="m24.236221 69.55118l304.12598 0l0 110.01575l-304.12598 0z" fill-rule="nonzero"></path><path stroke="#000000" stroke-width="1.0" stroke-linejoin="round" stroke-linecap="butt" d="m24.236221 69.55118l304.12598 0l0 110.01575l-304.12598 0z" fill-rule="nonzero"></path><path fill="#d9d2e9" d="m24.236221 184.73753l299.84253 0l0 70.645676l-299.84253 0z" fill-rule="nonzero"></path><path stroke="#000000" stroke-width="1.0" stroke-linejoin="round" stroke-linecap="butt" d="m24.236221 184.73753l299.84253 0l0 70.645676l-299.84253 0z" fill-rule="nonzero"></path><path fill="#000000" fill-opacity="0.0" d="m13.398951 7.4120736l242.26772 0l0 31.338583l-242.26772 0z" fill-rule="nonzero"></path><path fill="#000000" d="m25.52395 27.209574l5.1875 2.875q0.390625 0.21875 0.515625 0.390625q0.140625 0.171875 0.140625 0.4375q0 0.328125 -0.25 0.578125q-0.234375 0.25 -0.5625 0.25q-0.203125 0 -0.625 -0.234375l-7.734375 -4.296875l7.734375 -4.296875q0.421875 -0.234375 0.625 -0.234375q0.328125 0 0.5625 0.25q0.25 0.234375 0.25 0.578125q0 0.265625 -0.140625 0.4375q-0.125 0.171875 -0.515625 0.390625l-5.1875 2.875zm12.476561 -3.984375l-0.453125 4.828125q-0.03125 0.375 -0.25 0.59375q-0.21875 0.203125 -0.546875 0.203125q-0.328125 0 -0.546875 -0.203125q-0.21875 -0.21875 -0.25 -0.59375l-0.453125 -4.828125q-0.03125 -0.359375 -0.03125 -0.484375q0 -0.609375 0.359375 -0.96875q0.375 -0.375 0.921875 -0.375q0.546875 0 0.90625 0.375q0.375 0.375 0.375 0.9375q0 0.125 -0.03125 0.515625zm-0.265625 7.953125q0 0.34375 -0.265625 0.59375q-0.25 0.2343769 -0.703125 0.2343769q-0.453125 0 -0.71875 -0.2343769q-0.25 -0.25 -0.25 -0.59375q0 -0.328125 0.25 -0.5625q0.265625 -0.25 0.71875 -0.25q0.46875 0 0.71875 0.234375q0.25 0.234375 0.25 0.578125zm5.0859375 -1.015625l0 -6.265625q-0.5 0 -0.75 -0.21875q-0.234375 -0.234375 -0.234375 -0.578125q0 -0.359375 0.234375 -0.578125q0.25 -0.234375 0.828125 -0.234375l3.359375 0.015625q0.78125 0 1.515625 0.296875q0.75 0.28125 1.203125 0.71875q0.34375 0.34375 0.71875 0.9375q0.375 0.578125 0.5625 1.15625q0.1875 0.578125 0.1875 1.40625l0 0.765625q0 1.015625 -0.34375 1.8125q-0.34375 0.78125 -0.90625 1.28125q-0.5625 0.484375 -1.046875 0.71875q-0.78125 0.375 -2.03125 0.375l-3.21875 0q-0.578125 0 -0.828125 -0.21875q-0.234375 -0.234375 -0.234375 -0.59375q0 -0.34375 0.234375 -0.5625q0.25 -0.234375 0.75 -0.234375zm1.609375 0l1.703125 0q0.953125 0 1.4375 -0.265625q0.625 -0.359375 0.9375 -0.90625q0.328125 -0.5625 0.328125 -1.453125l0 -0.75q0 -0.765625 -0.28125 -1.328125q-0.453125 -0.890625 -1.03125 -1.21875q-0.5625 -0.34375 -1.40625 -0.34375l-1.6875 0l0 6.265625zm16.070312 -3.125q0 2.125 -1.359375 3.546875q-1.34375 1.4218769 -3.125 1.4218769q-1.609375 0 -2.890625 -1.1875019q-1.59375 -1.453125 -1.59375 -3.78125q0 -2.328125 1.59375 -3.796875q1.28125 -1.1875 2.890625 -1.1875q1.78125 0 3.125 1.421875q1.359375 1.421875 1.359375 3.5625zm-1.59375 0q0 -1.46875 -0.890625 -2.421875q-0.875 -0.953125 -2.0 -0.953125q-1.125 0 -2.015625 0.96875q-0.875 0.953125 -0.875 2.40625q0 1.453125 0.875 2.40625q0.890625 0.953125 2.015625 0.953125q1.125 0 2.0 -0.953125q0.890625 -0.953125 0.890625 -2.40625zm9.2109375 -4.328125q0.15625 -0.203125 0.328125 -0.296875q0.171875 -0.109375 0.375 -0.109375q0.359375 0 0.578125 0.25q0.21875 0.234375 0.21875 0.8125l0 1.359375q0 0.578125 -0.21875 0.828125q-0.21875 0.234375 -0.578125 0.234375q-0.3125 0 -0.515625 -0.171875q-0.1875 -0.1875 -0.28125 -0.671875q-0.0625 -0.328125 -0.21875 -0.515625q-0.328125 -0.34375 -0.90625 -0.546875q-0.5625 -0.21875 -1.140625 -0.21875q-0.71875 0 -1.328125 0.3125q-0.59375 0.3125 -1.0625 1.015625q-0.453125 0.703125 -0.453125 1.671875l0 1.03125q0 1.15625 0.828125 1.9375q0.84375 0.765625 2.34375 0.765625q0.890625 0 1.5 -0.234375q0.359375 -0.140625 0.765625 -0.5625q0.25 -0.25 0.390625 -0.3125q0.140625 -0.078125 0.328125 -0.078125q0.3125 0 0.546875 0.25q0.25 0.234375 0.25 0.5625q0 0.328125 -0.328125 0.703125q-0.46875 0.546875 -1.21875 0.859375q-1.015625 0.4218769 -2.234375 0.4218769q-1.421875 0 -2.5625 -0.5937519q-0.921875 -0.46875 -1.578125 -1.46875q-0.640625 -1.015625 -0.640625 -2.21875l0 -1.078125q0 -1.25 0.578125 -2.328125q0.59375 -1.09375 1.625 -1.671875q1.03125 -0.59375 2.1875 -0.59375q0.6875 0 1.296875 0.171875q0.609375 0.15625 1.125 0.484375zm7.8671875 1.1875l0 6.265625l1.078125 0q0.578125 0 0.828125 0.234375q0.25 0.21875 0.25 0.578125q0 0.34375 -0.25 0.578125q-0.25 0.21875 -0.828125 0.21875l-3.75 0q-0.578125 0 -0.828125 -0.21875q-0.234375 -0.234375 -0.234375 -0.59375q0 -0.34375 0.234375 -0.5625q0.25 -0.234375 0.828125 -0.234375l1.078125 0l0 -6.265625l-1.734375 0l0 1.515625q0 0.578125 -0.234375 0.828125q-0.21875 0.25 -0.578125 0.25q-0.34375 0 -0.578125 -0.25q-0.21875 -0.25 -0.21875 -0.828125l0 -3.125l8.296875 0.015625l0 3.109375q0 0.578125 -0.21875 0.828125q-0.21875 0.25 -0.578125 0.25q-0.359375 0 -0.578125 -0.25q-0.21875 -0.25 -0.21875 -0.828125l0 -1.515625l-1.765625 0zm9.6328125 3.890625l0 2.375l1.078125 0q0.578125 0 0.828125 0.234375q0.25 0.21875 0.25 0.578125q0 0.34375 -0.25 0.578125q-0.25 0.21875 -0.828125 0.21875l-3.75 0q-0.578125 0 -0.828125 -0.21875q-0.234375 -0.234375 -0.234375 -0.59375q0 -0.34375 0.234375 -0.5625q0.25 -0.234375 0.828125 -0.234375l1.078125 0l0 -2.375l-2.65625 -3.890625q-0.53125 0 -0.78125 -0.21875q-0.234375 -0.234375 -0.234375 -0.578125q0 -0.359375 0.234375 -0.578125q0.25 -0.234375 0.828125 -0.234375l1.453125 0.015625q0.578125 0 0.828125 0.21875q0.25 0.21875 0.25 0.578125q0 0.53125 -0.640625 0.796875l1.515625 2.234375l1.484375 -2.234375q-0.34375 -0.125 -0.5 -0.328125q-0.140625 -0.203125 -0.140625 -0.46875q0 -0.359375 0.234375 -0.578125q0.25 -0.21875 0.828125 -0.234375l1.515625 0.015625q0.578125 0 0.8125 0.21875q0.25 0.21875 0.25 0.578125q0 0.359375 -0.25 0.578125q-0.25 0.21875 -0.8125 0.21875l-2.625 3.890625zm7.8671875 0.734375l0 1.640625l1.625 0q0.578125 0 0.8125 0.234375q0.25 0.21875 0.25 0.578125q0 0.34375 -0.25 0.578125q-0.234375 0.21875 -0.8125 0.21875l-3.46875 0q-0.578125 0 -0.828125 -0.21875q-0.25 -0.234375 -0.25 -0.59375q0 -0.34375 0.25 -0.5625q0.25 -0.234375 0.828125 -0.234375l0.25 0l0 -6.265625l-0.25 0q-0.578125 0 -0.828125 -0.21875q-0.25 -0.21875 -0.25 -0.578125q0 -0.359375 0.25 -0.578125q0.25 -0.234375 0.828125 -0.234375l3.6875 0.015625q1.625 0 2.5625 0.890625q0.953125 0.875 0.953125 2.15625q0 0.703125 -0.3125 1.328125q-0.25 0.46875 -0.8125 0.921875q-0.5625 0.453125 -1.15625 0.6875q-0.59375 0.234375 -1.5625 0.234375l-1.515625 0zm0 -1.609375l1.484375 0q1.046875 0 1.65625 -0.46875q0.625 -0.46875 0.625 -1.140625q0 -0.5625 -0.5 -0.984375q-0.5 -0.421875 -1.421875 -0.421875l-1.84375 0l0 3.015625zm8.8828125 0.90625l0 2.34375l4.09375 0l0 -0.859375q0 -0.578125 0.21875 -0.828125q0.21875 -0.25 0.578125 -0.25q0.359375 0 0.578125 0.25q0.21875 0.25 0.21875 0.828125l0 2.46875l-7.53125 0q-0.578125 0 -0.828125 -0.21875q-0.25 -0.234375 -0.25 -0.59375q0 -0.34375 0.25 -0.5625q0.25 -0.234375 0.828125 -0.234375l0.25 0l0 -6.265625l-0.25 0q-0.578125 0 -0.828125 -0.21875q-0.25 -0.21875 -0.25 -0.578125q0 -0.359375 0.25 -0.578125q0.25 -0.234375 0.828125 -0.234375l7.1875 0.015625l0 2.4375q0 0.5625 -0.21875 0.8125q-0.21875 0.25 -0.578125 0.25q-0.359375 0 -0.59375 -0.234375q-0.21875 -0.25 -0.21875 -0.828125l0 -0.84375l-3.734375 0l0 2.3125l1.40625 0q0 -0.625 0.125 -0.796875q0.234375 -0.390625 0.6875 -0.390625q0.34375 0 0.5625 0.25q0.234375 0.25 0.234375 0.828125l0 1.84375q0 0.515625 -0.125 0.703125q-0.25 0.359375 -0.671875 0.359375q-0.453125 0 -0.6875 -0.375q-0.125 -0.1875 -0.125 -0.8125l-1.40625 0zm22.609375 0.03125l-3.421875 0l0 2.3125l0.25 0q0.578125 0 0.8125 0.234375q0.25 0.21875 0.25 0.578125q0 0.34375 -0.25 0.578125q-0.234375 0.21875 -0.8125 0.21875l-1.96875 0q-0.578125 0 -0.828125 -0.21875q-0.234375 -0.234375 -0.234375 -0.59375q0 -0.4375 0.375 -0.671875q0.1875 -0.125 0.796875 -0.125l0 -6.265625q-0.421875 -0.03125 -0.640625 -0.25q-0.203125 -0.21875 -0.203125 -0.546875q0 -0.359375 0.234375 -0.578125q0.25 -0.234375 0.828125 -0.234375l1.640625 0.015625q0.578125 0 0.8125 0.21875q0.25 0.21875 0.25 0.578125q0 0.359375 -0.25 0.578125q-0.234375 0.21875 -0.8125 0.21875l-0.25 0l0 2.34375l3.421875 0l0 -2.34375l-0.25 0q-0.578125 0 -0.828125 -0.21875q-0.25 -0.21875 -0.25 -0.578125q0 -0.359375 0.25 -0.578125q0.25 -0.234375 0.828125 -0.234375l1.625 0.015625q0.578125 0 0.828125 0.21875q0.25 0.21875 0.25 0.578125q0 0.328125 -0.21875 0.546875q-0.21875 0.21875 -0.640625 0.25l0 6.265625q0.625 0 0.796875 0.125q0.390625 0.234375 0.390625 0.6875q0 0.34375 -0.25 0.578125q-0.25 0.21875 -0.828125 0.21875l-1.953125 0q-0.578125 0 -0.828125 -0.21875q-0.25 -0.234375 -0.25 -0.59375q0 -0.34375 0.25 -0.5625q0.25 -0.234375 0.828125 -0.234375l0.25 0l0 -2.3125zm8.617195 -3.953125l0 6.265625l1.078125 0q0.578125 0 0.828125 0.234375q0.25 0.21875 0.25 0.578125q0 0.34375 -0.25 0.578125q-0.25 0.21875 -0.828125 0.21875l-3.75 0q-0.578125 0 -0.828125 -0.21875q-0.234375 -0.234375 -0.234375 -0.59375q0 -0.34375 0.234375 -0.5625q0.25 -0.234375 0.828125 -0.234375l1.078125 0l0 -6.265625l-1.734375 0l0 1.515625q0 0.578125 -0.234375 0.828125q-0.21875 0.25 -0.578125 0.25q-0.34375 0 -0.578125 -0.25q-0.21875 -0.25 -0.21875 -0.828125l0 -3.125l8.296875 0.015625l0 3.109375q0 0.578125 -0.21875 0.828125q-0.21875 0.25 -0.578125 0.25q-0.359375 0 -0.578125 -0.25q-0.21875 -0.25 -0.21875 -0.828125l0 -1.515625l-1.765625 0zm6.3203125 1.5l0 4.765625l0.578125 0q0.578125 0 0.828125 0.234375q0.25 0.21875 0.25 0.578125q0 0.34375 -0.25 0.578125q-0.25 0.21875 -0.828125 0.21875l-2.09375 0q-0.578125 0 -0.828125 -0.21875q-0.25 -0.234375 -0.25 -0.59375q0 -0.34375 0.25 -0.5625q0.234375 -0.234375 0.75 -0.234375l0 -6.265625q-0.421875 -0.03125 -0.640625 -0.25q-0.21875 -0.21875 -0.21875 -0.546875q0 -0.359375 0.25 -0.578125q0.25 -0.234375 0.828125 -0.234375l1.75 0.015625l2.1875 4.8125l2.140625 -4.828125l1.765625 0.015625q0.578125 0 0.828125 0.21875q0.25 0.21875 0.25 0.578125q0 0.328125 -0.21875 0.546875q-0.21875 0.21875 -0.640625 0.25l0 6.265625q0.515625 0 0.75 0.234375q0.25 0.21875 0.25 0.578125q0 0.34375 -0.25 0.578125q-0.25 0.21875 -0.828125 0.21875l-2.109375 0q-0.5625 0 -0.8125 -0.21875q-0.25 -0.234375 -0.25 -0.59375q0 -0.34375 0.25 -0.5625q0.25 -0.234375 0.8125 -0.234375l0.59375 0l0 -4.765625l-1.84375 4.125l-1.390625 0l-1.859375 -4.125zm11.4453125 -1.5l0 6.265625l3.453125 0l0 -1.515625q0 -0.578125 0.21875 -0.8125q0.21875 -0.25 0.578125 -0.25q0.359375 0 0.578125 0.25q0.21875 0.234375 0.21875 0.8125l0 3.125l-7.578125 0q-0.578125 0 -0.828125 -0.21875q-0.25 -0.234375 -0.25 -0.59375q0 -0.34375 0.25 -0.5625q0.25 -0.234375 0.828125 -0.234375l0.921875 0l0 -6.265625l-0.921875 0q-0.578125 0 -0.828125 -0.21875q-0.25 -0.21875 -0.25 -0.578125q0 -0.359375 0.25 -0.578125q0.25 -0.234375 0.828125 -0.234375l3.46875 0.015625q0.578125 0 0.8125 0.21875q0.25 0.21875 0.25 0.578125q0 0.359375 -0.25 0.578125q-0.234375 0.21875 -0.8125 0.21875l-0.9375 0zm11.9609375 3.3125l-5.1875 -2.875q-0.390625 -0.21875 -0.53125 -0.390625q-0.125 -0.171875 -0.125 -0.4375q0 -0.34375 0.234375 -0.578125q0.25 -0.25 0.578125 -0.25q0.203125 0 0.625 0.234375l7.734375 4.296875l-7.734375 4.296875q-0.421875 0.234375 -0.625 0.234375q-0.328125 0 -0.578125 -0.234375q-0.234375 -0.25 -0.234375 -0.59375q0 -0.265625 0.125 -0.4375q0.140625 -0.171875 0.53125 -0.390625l5.1875 -2.875z" fill-rule="nonzero"></path><path fill="#000000" d="m25.52395 46.209576l5.1875 2.875q0.390625 0.21875 0.515625 0.390625q0.140625 0.171875 0.140625 0.4375q0 0.328125 -0.25 0.578125q-0.234375 0.25 -0.5625 0.25q-0.203125 0 -0.625 -0.234375l-7.734375 -4.296875l7.734375 -4.296875q0.421875 -0.234375 0.625 -0.234375q0.328125 0 0.5625 0.25q0.25 0.234375 0.25 0.578125q0 0.265625 -0.140625 0.4375q-0.125 0.171875 -0.515625 0.390625l-5.1875 2.875zm9.632811 -5.578125l0 3.421875q0.5 -0.296875 1.0 -0.4375q0.515625 -0.15625 1.046875 -0.15625q0.828125 0 1.46875 0.28125q0.65625 0.28125 1.078125 0.890625q0.421875 0.609375 0.421875 1.53125l0 3.0q0.609375 0 0.796875 0.125q0.375 0.234375 0.375 0.6875q0 0.34375 -0.25 0.578125q-0.234375 0.21875 -0.8125 0.21875l-1.828125 0q-0.5625 0 -0.8125 -0.21875q-0.25 -0.234375 -0.25 -0.59375q0 -0.4375 0.375 -0.671875q0.203125 -0.125 0.796875 -0.125l0 -2.890625q0 -0.625 -0.28125 -0.875q-0.359375 -0.328125 -1.078125 -0.328125q-0.53125 0 -0.953125 0.203125q-0.40625 0.203125 -1.09375 0.890625l0 3.0q0.609375 0 0.796875 0.125q0.375 0.234375 0.375 0.6875q0 0.34375 -0.25 0.578125q-0.234375 0.21875 -0.8125 0.21875l-1.828125 0q-0.578125 0 -0.828125 -0.21875q-0.234375 -0.234375 -0.234375 -0.59375q0 -0.4375 0.375 -0.671875q0.1875 -0.125 0.796875 -0.125l0 -6.921875l-0.265625 0q-0.578125 0 -0.828125 -0.21875q-0.25 -0.234375 -0.25 -0.59375q0 -0.34375 0.25 -0.5625q0.25 -0.234375 0.828125 -0.234375l1.875 0zm10.8515625 4.640625l0 3.21875q0 0.515625 0.21875 0.671875q0.328125 0.265625 1.171875 0.265625q1.21875 0 2.265625 -0.53125q0.390625 -0.203125 0.625 -0.203125q0.3125 0 0.53125 0.234375q0.234375 0.234375 0.234375 0.578125q0 0.3125 -0.25 0.53125q-0.375 0.375 -1.515625 0.6875q-1.125 0.3125 -1.890625 0.3125q-1.5 0 -2.25 -0.640625q-0.734375 -0.65625 -0.734375 -1.59375l0 -3.53125l-0.578125 0q-0.578125 0 -0.828125 -0.21875q-0.25 -0.21875 -0.25 -0.578125q0 -0.359375 0.25 -0.578125q0.25 -0.21875 0.828125 -0.21875l0.578125 0l0 -1.453125q0 -0.578125 0.21875 -0.8125q0.21875 -0.25 0.578125 -0.25q0.359375 0 0.578125 0.25q0.21875 0.234375 0.21875 0.8125l0 1.453125l2.96875 0q0.578125 0 0.8125 0.21875q0.25 0.21875 0.25 0.578125q0 0.359375 -0.25 0.578125q-0.234375 0.21875 -0.8125 0.21875l-2.96875 0zm7.5234375 -1.59375l0 0.453125q0.390625 -0.390625 0.703125 -0.53125q0.328125 -0.140625 0.734375 -0.140625q0.359375 0 0.703125 0.171875q0.34375 0.171875 0.671875 0.515625q0.40625 -0.34375 0.828125 -0.515625q0.4375 -0.171875 0.875 -0.171875q0.890625 0 1.453125 0.484375q0.734375 0.625 0.734375 1.640625l0 3.578125q0.5 0 0.734375 0.234375q0.25 0.21875 0.25 0.578125q0 0.34375 -0.25 0.578125q-0.234375 0.21875 -0.8125 0.21875l-1.53125 0l0 -5.0625q0 -0.359375 -0.140625 -0.5q-0.125 -0.140625 -0.390625 -0.140625q-0.265625 0 -0.5 0.140625q-0.28125 0.1875 -0.703125 0.734375l0 3.21875q0.5 0 0.734375 0.234375q0.25 0.21875 0.25 0.578125q0 0.34375 -0.25 0.578125q-0.234375 0.21875 -0.8125 0.21875l-1.515625 0l0 -5.0625q0 -0.359375 -0.140625 -0.5q-0.140625 -0.140625 -0.40625 -0.140625q-0.28125 0 -0.5625 0.171875q-0.265625 0.171875 -0.65625 0.703125l0 3.21875q0.5 0 0.75 0.234375q0.25 0.21875 0.25 0.578125q0 0.34375 -0.25 0.578125q-0.25 0.21875 -0.828125 0.21875l-1.4375 0q-0.578125 0 -0.828125 -0.21875q-0.25 -0.234375 -0.25 -0.59375q0 -0.34375 0.25 -0.5625q0.234375 -0.234375 0.75 -0.234375l0 -3.890625q-0.515625 0 -0.75 -0.21875q-0.25 -0.234375 -0.25 -0.578125q0 -0.359375 0.25 -0.578125q0.25 -0.21875 0.828125 -0.21875l1.515625 0zm12.8828125 -3.046875l0 8.53125l1.921875 0q0.578125 0 0.8125 0.234375q0.25 0.21875 0.25 0.578125q0 0.34375 -0.25 0.578125q-0.234375 0.21875 -0.8125 0.21875l-5.453125 0q-0.578125 0 -0.828125 -0.21875q-0.234375 -0.234375 -0.234375 -0.59375q0 -0.34375 0.234375 -0.5625q0.25 -0.234375 0.828125 -0.234375l1.921875 0l0 -6.921875l-1.28125 0q-0.578125 0 -0.828125 -0.21875q-0.25 -0.234375 -0.25 -0.59375q0 -0.34375 0.25 -0.5625q0.25 -0.234375 0.828125 -0.234375l2.890625 0zm10.4921875 5.578125l-5.1875 -2.875q-0.390625 -0.21875 -0.53125 -0.390625q-0.125 -0.171875 -0.125 -0.4375q0 -0.34375 0.234375 -0.578125q0.25 -0.25 0.578125 -0.25q0.203125 0 0.625 0.234375l7.734375 4.296875l-7.734375 4.296875q-0.421875 0.234375 -0.625 0.234375q-0.328125 0 -0.578125 -0.234375q-0.234375 -0.25 -0.234375 -0.59375q0 -0.265625 0.125 -0.4375q0.140625 -0.171875 0.53125 -0.390625l5.1875 -2.875z" fill-rule="nonzero"></path><path fill="#000000" d="m44.727074 84.20957l5.1875 2.875q0.390625 0.21875 0.515625 0.390625q0.140625 0.171875 0.140625 0.4375q0 0.328125 -0.25 0.578125q-0.234375 0.25 -0.5625 0.25q-0.203125 0 -0.625 -0.234375l-7.734375 -4.296875l7.734375 -4.296875q0.421875 -0.234375 0.625 -0.234375q0.328125 0 0.5625 0.25q0.25 0.234375 0.25 0.578125q0 0.265625 -0.140625 0.4375q-0.125 0.171875 -0.515625 0.390625l-5.1875 2.875zm9.6328125 -5.578125l0 3.421875q0.5 -0.296875 1.0 -0.4375q0.515625 -0.15625 1.046875 -0.15625q0.828125 0 1.46875 0.28125q0.65625 0.28125 1.078125 0.890625q0.421875 0.609375 0.421875 1.53125l0 3.0q0.609375 0 0.796875 0.125q0.375 0.234375 0.375 0.6875q0 0.34375 -0.25 0.578125q-0.234375 0.21875 -0.8125 0.21875l-1.828125 0q-0.5625 0 -0.8125 -0.21875q-0.25 -0.234375 -0.25 -0.59375q0 -0.4375 0.375 -0.671875q0.203125 -0.125 0.796875 -0.125l0 -2.890625q0 -0.625 -0.28125 -0.875q-0.359375 -0.328125 -1.078125 -0.328125q-0.53125 0 -0.953125 0.203125q-0.40625 0.203125 -1.09375 0.890625l0 3.0q0.609375 0 0.796875 0.125q0.375 0.234375 0.375 0.6875q0 0.34375 -0.25 0.578125q-0.234375 0.21875 -0.8125 0.21875l-1.828125 0q-0.578125 0 -0.828125 -0.21875q-0.234375 -0.234375 -0.234375 -0.59375q0 -0.4375 0.375 -0.671875q0.1875 -0.125 0.796875 -0.125l0 -6.921875l-0.265625 0q-0.578125 0 -0.828125 -0.21875q-0.25 -0.234375 -0.25 -0.59375q0 -0.34375 0.25 -0.5625q0.25 -0.234375 0.828125 -0.234375l1.875 0zm15.2734375 7.40625l-6.578125 0q0.25 0.625 0.890625 1.015625q0.640625 0.375 1.71875 0.375q0.890625 0 2.375 -0.390625q0.609375 -0.15625 0.84375 -0.15625q0.3125 0 0.53125 0.234375q0.21875 0.21875 0.21875 0.5625q0 0.3125 -0.234375 0.53125q-0.3125 0.296875 -1.53125 0.5625q-1.203125 0.265625 -2.3125 0.265625q-1.921875 0 -3.078125 -1.09375q-1.15625 -1.09375 -1.15625 -2.671875q0 -1.6875 1.25 -2.75q1.25 -1.0625 2.875 -1.0625q0.96875 0 1.78125 0.34375q0.828125 0.34375 1.21875 0.75q0.5625 0.578125 0.9375 1.421875q0.25 0.59375 0.25 1.375l0 0.6875zm-1.78125 -1.609375q-0.359375 -0.6875 -0.953125 -1.015625q-0.59375 -0.34375 -1.421875 -0.34375q-0.8125 0 -1.40625 0.34375q-0.59375 0.328125 -0.96875 1.015625l4.75 0zm8.8046875 4.34375l0 -0.375q-0.609375 0.3125 -1.34375 0.46875q-0.71875 0.171875 -1.3125 0.171875q-1.28125 0 -2.09375 -0.6875q-0.796875 -0.6875 -0.796875 -1.515625q0 -1.0 1.015625 -1.859375q1.03125 -0.875 2.84375 -0.875q0.734375 0 1.6875 0.15625l0 -0.375q0 -0.359375 -0.3125 -0.578125q-0.3125 -0.234375 -1.171875 -0.234375q-0.71875 0 -1.84375 0.28125q-0.421875 0.09375 -0.65625 0.09375q-0.328125 0 -0.546875 -0.21875q-0.21875 -0.234375 -0.21875 -0.59375q0 -0.203125 0.078125 -0.34375q0.078125 -0.15625 0.21875 -0.25q0.140625 -0.09375 0.578125 -0.21875q0.59375 -0.15625 1.203125 -0.25q0.625 -0.109375 1.125 -0.109375q1.5 0 2.3125 0.65625q0.828125 0.640625 0.828125 1.75l0 3.296875l0.28125 0q0.578125 0 0.8125 0.234375q0.25 0.21875 0.25 0.578125q0 0.34375 -0.25 0.578125q-0.234375 0.21875 -0.8125 0.21875l-1.875 0zm0 -2.875q-0.96875 -0.1875 -1.78125 -0.1875q-0.96875 0 -1.671875 0.484375q-0.4375 0.296875 -0.4375 0.609375q0 0.234375 0.203125 0.375q0.390625 0.25 1.078125 0.25q0.578125 0 1.296875 -0.21875q0.734375 -0.234375 1.3125 -0.625l0 -0.6875zm11.8359375 -7.265625l0 8.53125l0.265625 0q0.578125 0 0.828125 0.234375q0.25 0.21875 0.25 0.578125q0 0.34375 -0.25 0.578125q-0.25 0.21875 -0.828125 0.21875l-1.875 0l0 -0.390625q-0.546875 0.3125 -1.140625 0.484375q-0.59375 0.171875 -1.234375 0.171875q-1.8125 0 -2.921875 -1.046875q-1.09375 -1.046875 -1.09375 -2.609375q0 -1.625 1.15625 -2.765625q1.15625 -1.15625 2.828125 -1.15625q0.625 0 1.21875 0.203125q0.609375 0.1875 1.1875 0.5625l0 -1.984375l-0.265625 0q-0.578125 0 -0.828125 -0.21875q-0.25 -0.234375 -0.25 -0.578125q0 -0.359375 0.25 -0.578125q0.25 -0.234375 0.828125 -0.234375l1.875 0zm-1.609375 6.796875q0 -0.984375 -0.703125 -1.671875q-0.6875 -0.6875 -1.6875 -0.6875q-1.0 0 -1.703125 0.6875q-0.6875 0.6875 -0.6875 1.65625q0 0.875 0.625 1.453125q0.625 0.5625 1.765625 0.5625q1.125 0 1.75 -0.5625q0.640625 -0.578125 0.640625 -1.4375zm9.2265625 -1.21875l-5.1875 -2.875q-0.390625 -0.21875 -0.53125 -0.390625q-0.125 -0.171875 -0.125 -0.4375q0 -0.34375 0.234375 -0.578125q0.25 -0.25 0.578125 -0.25q0.203125 0 0.625 0.234375l7.734375 4.296875l-7.734375 4.296875q-0.421875 0.234375 -0.625 0.234375q-0.328125 0 -0.578125 -0.234375q-0.234375 -0.25 -0.234375 -0.59375q0 -0.265625 0.125 -0.4375q0.140625 -0.171875 0.53125 -0.390625l5.1875 -2.875z" fill-rule="nonzero"></path><path fill="#000000" d="m63.9302 103.20957l5.1875 2.875q0.390625 0.21875 0.515625 0.390625q0.140625 0.171875 0.140625 0.4375q0 0.328125 -0.25 0.578125q-0.234375 0.25 -0.5625 0.25q-0.203125 0 -0.625 -0.234375l-7.734375 -4.296875l7.734375 -4.296875q0.421875 -0.234375 0.625 -0.234375q0.328125 0 0.5625 0.25q0.25 0.234375 0.25 0.578125q0 0.265625 -0.140625 0.4375q-0.125 0.171875 -0.515625 0.390625l-5.1875 2.875zm10.8828125 -0.9375l0 3.21875q0 0.515625 0.21875 0.671875q0.328125 0.265625 1.171875 0.265625q1.21875 0 2.265625 -0.53125q0.390625 -0.203125 0.625 -0.203125q0.3125 0 0.53125 0.234375q0.234375 0.234375 0.234375 0.578125q0 0.3125 -0.25 0.53125q-0.375 0.375 -1.515625 0.6875q-1.125 0.3125 -1.890625 0.3125q-1.5 0 -2.25 -0.640625q-0.734375 -0.65625 -0.734375 -1.59375l0 -3.53125l-0.578125 0q-0.578125 0 -0.828125 -0.21875q-0.25 -0.21875 -0.25 -0.578125q0 -0.359375 0.25 -0.578125q0.25 -0.21875 0.828125 -0.21875l0.578125 0l0 -1.453125q0 -0.578125 0.21875 -0.8125q0.21875 -0.25 0.578125 -0.25q0.359375 0 0.578125 0.25q0.21875 0.234375 0.21875 0.8125l0 1.453125l2.96875 0q0.578125 0 0.8125 0.21875q0.25 0.21875 0.25 0.578125q0 0.359375 -0.25 0.578125q-0.234375 0.21875 -0.8125 0.21875l-2.96875 0zm10.5703125 -4.640625l0 1.703125l-1.90625 0l0 -1.703125l1.90625 0zm0.21875 3.046875l0 5.484375l1.921875 0q0.578125 0 0.828125 0.234375q0.25 0.21875 0.25 0.578125q0 0.34375 -0.25 0.578125q-0.25 0.21875 -0.828125 0.21875l-5.4375 0q-0.578125 0 -0.828125 -0.21875q-0.25 -0.234375 -0.25 -0.59375q0 -0.34375 0.25 -0.5625q0.25 -0.234375 0.828125 -0.234375l1.921875 0l0 -3.890625l-1.296875 0q-0.5625 0 -0.8125 -0.21875q-0.25 -0.21875 -0.25 -0.578125q0 -0.359375 0.234375 -0.578125q0.25 -0.21875 0.828125 -0.21875l2.890625 0zm8.4140625 1.59375l0 3.21875q0 0.515625 0.21875 0.671875q0.328125 0.265625 1.171875 0.265625q1.21875 0 2.265625 -0.53125q0.390625 -0.203125 0.625 -0.203125q0.3125 0 0.53125 0.234375q0.234375 0.234375 0.234375 0.578125q0 0.3125 -0.25 0.53125q-0.375 0.375 -1.515625 0.6875q-1.125 0.3125 -1.890625 0.3125q-1.5 0 -2.25 -0.640625q-0.734375 -0.65625 -0.734375 -1.59375l0 -3.53125l-0.578125 0q-0.578125 0 -0.828125 -0.21875q-0.25 -0.21875 -0.25 -0.578125q0 -0.359375 0.25 -0.578125q0.25 -0.21875 0.828125 -0.21875l0.578125 0l0 -1.453125q0 -0.578125 0.21875 -0.8125q0.21875 -0.25 0.578125 -0.25q0.359375 0 0.578125 0.25q0.21875 0.234375 0.21875 0.8125l0 1.453125l2.96875 0q0.578125 0 0.8125 0.21875q0.25 0.21875 0.25 0.578125q0 0.359375 -0.25 0.578125q-0.234375 0.21875 -0.8125 0.21875l-2.96875 0zm10.8046875 -4.640625l0 8.53125l1.921875 0q0.578125 0 0.8125 0.234375q0.25 0.21875 0.25 0.578125q0 0.34375 -0.25 0.578125q-0.234375 0.21875 -0.8125 0.21875l-5.453125 0q-0.578125 0 -0.828125 -0.21875q-0.234375 -0.234375 -0.234375 -0.59375q0 -0.34375 0.234375 -0.5625q0.25 -0.234375 0.828125 -0.234375l1.921875 0l0 -6.921875l-1.28125 0q-0.578125 0 -0.828125 -0.21875q-0.25 -0.234375 -0.25 -0.59375q0 -0.34375 0.25 -0.5625q0.25 -0.234375 0.828125 -0.234375l2.890625 0zm12.8203125 7.40625l-6.578125 0q0.25 0.625 0.890625 1.015625q0.640625 0.375 1.71875 0.375q0.890625 0 2.375 -0.390625q0.609375 -0.15625 0.84375 -0.15625q0.3125 0 0.53125 0.234375q0.21875 0.21875 0.21875 0.5625q0 0.3125 -0.234375 0.53125q-0.3125 0.296875 -1.53125 0.5625q-1.203125 0.265625 -2.3125 0.265625q-1.921875 0 -3.078125 -1.09375q-1.15625 -1.09375 -1.15625 -2.671875q0 -1.6875 1.25 -2.75q1.25 -1.0625 2.875 -1.0625q0.96875 0 1.78125 0.34375q0.828125 0.34375 1.21875 0.75q0.5625 0.578125 0.9375 1.421875q0.25 0.59375 0.25 1.375l0 0.6875zm-1.78125 -1.609375q-0.359375 -0.6875 -0.953125 -1.015625q-0.59375 -0.34375 -1.421875 -0.34375q-0.8125 0 -1.40625 0.34375q-0.59375 0.328125 -0.96875 1.015625l4.75 0zm9.0546875 -0.21875l-5.1875 -2.875q-0.390625 -0.21875 -0.53125 -0.390625q-0.125 -0.171875 -0.125 -0.4375q0 -0.34375 0.234375 -0.578125q0.25 -0.25 0.578125 -0.25q0.203125 0 0.625 0.234375l7.7343826 4.296875l-7.7343826 4.296875q-0.421875 0.234375 -0.625 0.234375q-0.328125 0 -0.578125 -0.234375q-0.234375 -0.25 -0.234375 -0.59375q0 -0.265625 0.125 -0.4375q0.140625 -0.171875 0.53125 -0.390625l5.1875 -2.875z" fill-rule="nonzero"></path><path fill="#000000" d="m82.3052 120.39707l0 4.765625l0.578125 0q0.578125 0 0.828125 0.234375q0.25 0.21875 0.25 0.578125q0 0.34375 -0.25 0.578125q-0.25 0.21875 -0.828125 0.21875l-2.09375 0q-0.578125 0 -0.828125 -0.21875q-0.25 -0.234375 -0.25 -0.59375q0 -0.34375 0.25 -0.5625q0.234375 -0.234375 0.75 -0.234375l0 -6.265625q-0.421875 -0.03125 -0.640625 -0.25q-0.21875 -0.21875 -0.21875 -0.546875q0 -0.359375 0.25 -0.578125q0.25 -0.234375 0.828125 -0.234375l1.75 0.015625l2.1875 4.8125l2.140625 -4.828125l1.765625 0.015625q0.578125 0 0.828125 0.21875q0.25 0.21875 0.25 0.578125q0 0.328125 -0.21875 0.546875q-0.21875 0.21875 -0.640625 0.25l0 6.265625q0.515625 0 0.75 0.234375q0.25 0.21875 0.25 0.578125q0 0.34375 -0.25 0.578125q-0.25 0.21875 -0.828125 0.21875l-2.109375 0q-0.5625 0 -0.8125 -0.21875q-0.25 -0.234375 -0.25 -0.59375q0 -0.34375 0.25 -0.5625q0.25 -0.234375 0.8125 -0.234375l0.59375 0l0 -4.765625l-1.84375 4.125l-1.390625 0l-1.859375 -4.125zm11.2109375 6.3125l-2.765625 -5.4375q-0.390625 -0.046875 -0.59375 -0.265625q-0.203125 -0.21875 -0.203125 -0.53125q0 -0.359375 0.234375 -0.578125q0.25 -0.21875 0.828125 -0.21875l1.46875 0q0.578125 0 0.8125 0.21875q0.25 0.21875 0.25 0.578125q0 0.359375 -0.25 0.578125q-0.234375 0.21875 -0.765625 0.21875l1.890625 3.6875l1.875 -3.6875q-0.515625 0 -0.765625 -0.21875q-0.25 -0.21875 -0.25 -0.578125q0 -0.359375 0.25 -0.578125q0.25 -0.21875 0.828125 -0.21875l1.5 0q0.578125 0 0.8125 0.21875q0.25 0.21875 0.25 0.578125q0 0.328125 -0.21875 0.546875q-0.203125 0.21875 -0.609375 0.25l-3.671875 7.2500076q0.59375 0 0.78125 0.109375q0.375 0.25 0.375 0.6875q0 0.359375 -0.25 0.578125q-0.234375 0.21875 -0.8125 0.21875l-3.5 0q-0.578125 0 -0.828125 -0.21875q-0.234375 -0.21875 -0.234375 -0.578125q0 -0.359375 0.234375 -0.578125q0.25 -0.21875 0.828125 -0.21875l1.59375 0l0.90625 -1.8125076zm19.0 -3.890625l0 2.34375l1.640625 0q0.578125 0 0.828125 0.234375q0.25 0.21875 0.25 0.578125q0 0.34375 -0.25 0.578125q-0.25 0.21875 -0.828125 0.21875l-3.484375 0q-0.578125 0 -0.828125 -0.21875q-0.25 -0.234375 -0.25 -0.59375q0 -0.34375 0.25 -0.5625q0.25 -0.234375 0.828125 -0.234375l0.25 0l0 -6.265625l-0.25 0q-0.578125 0 -0.828125 -0.21875q-0.25 -0.21875 -0.25 -0.578125q0 -0.359375 0.25 -0.578125q0.25 -0.234375 0.828125 -0.234375l7.53125 0.015625l0 2.4375q0 0.578125 -0.21875 0.828125q-0.21875 0.234375 -0.578125 0.234375q-0.359375 0 -0.578125 -0.234375q-0.21875 -0.25 -0.21875 -0.828125l0 -0.84375l-4.09375 0l0 2.328125l1.40625 0q0 -0.625 0.125 -0.8125q0.234375 -0.375 0.6875 -0.375q0.34375 0 0.5625 0.25q0.234375 0.234375 0.234375 0.8125l0 1.84375q0 0.578125 -0.234375 0.828125q-0.21875 0.25 -0.578125 0.25q-0.4375 0 -0.671875 -0.390625q-0.125 -0.171875 -0.125 -0.8125l-1.40625 0zm11.2734375 -6.1875l0 1.703125l-1.90625 0l0 -1.703125l1.90625 0zm0.21875 3.046875l0 5.484375l1.921875 0q0.578125 0 0.828125 0.234375q0.25 0.21875 0.25 0.578125q0 0.34375 -0.25 0.578125q-0.25 0.21875 -0.828125 0.21875l-5.4375 0q-0.578125 0 -0.828125 -0.21875q-0.25 -0.234375 -0.25 -0.59375q0 -0.34375 0.25 -0.5625q0.25 -0.234375 0.828125 -0.234375l1.921875 0l0 -3.890625l-1.296875 0q-0.5625 0 -0.8125 -0.21875q-0.25 -0.21875 -0.25 -0.578125q0 -0.359375 0.234375 -0.578125q0.25 -0.21875 0.828125 -0.21875l2.890625 0zm8.47657 0l0 1.0q1.015625 -0.734375 1.59375 -0.96875q0.578125 -0.25 1.09375 -0.25q0.78125 0 1.515625 0.578125q0.5 0.390625 0.5 0.796875q0 0.34375 -0.25 0.59375q-0.234375 0.234375 -0.5625 0.234375q-0.296875 0 -0.625 -0.296875q-0.328125 -0.296875 -0.59375 -0.296875q-0.328125 0 -1.0 0.421875q-0.671875 0.421875 -1.671875 1.265625l0 2.40625l2.28125 0q0.578125 0 0.828125 0.234375q0.25 0.21875 0.25 0.578125q0 0.34375 -0.25 0.578125q-0.25 0.21875 -0.828125 0.21875l-4.828125 0q-0.578125 0 -0.828125 -0.21875q-0.25 -0.234375 -0.25 -0.59375q0 -0.34375 0.25 -0.5625q0.25 -0.234375 0.828125 -0.234375l0.953125 0l0 -3.890625l-0.578125 0q-0.578125 0 -0.828125 -0.21875q-0.25 -0.21875 -0.25 -0.578125q0 -0.359375 0.25 -0.578125q0.25 -0.21875 0.828125 -0.21875l2.171875 0zm11.6640625 1.875q-0.390625 -0.25 -0.828125 -0.359375q-0.421875 -0.125 -0.890625 -0.125q-0.921875 0 -1.46875 0.296875q-0.25 0.140625 -0.25 0.296875q0 0.171875 0.328125 0.34375q0.25 0.125 1.125 0.25q1.59375 0.21875 2.21875 0.4375q0.8125 0.28125 1.25 0.859375q0.453125 0.5625 0.453125 1.203125q0 0.859375 -0.75 1.4375q-1.09375 0.84375 -2.828125 0.84375q-0.6875 0 -1.28125 -0.125q-0.59375 -0.125 -1.078125 -0.359375q-0.125 0.09375 -0.265625 0.15625q-0.125 0.046875 -0.265625 0.046875q-0.375 0 -0.59375 -0.234375q-0.21875 -0.25 -0.21875 -0.828125l0 -0.546875q0 -0.578125 0.21875 -0.8125q0.21875 -0.25 0.578125 -0.25q0.296875 0 0.484375 0.15625q0.203125 0.15625 0.3125 0.546875q0.359375 0.3125 0.875 0.484375q0.515625 0.15625 1.1875 0.15625q1.109375 0 1.71875 -0.34375q0.28125 -0.171875 0.28125 -0.359375q0 -0.3125 -0.40625 -0.515625q-0.421875 -0.203125 -1.71875 -0.34375q-1.921875 -0.203125 -2.578125 -0.78125q-0.640625 -0.578125 -0.640625 -1.40625q0 -0.859375 0.71875 -1.4375q0.984375 -0.78125 2.578125 -0.78125q0.5625 0 1.0625 0.109375q0.515625 0.109375 0.984375 0.328125q0.15625 -0.109375 0.28125 -0.15625q0.125 -0.0625 0.234375 -0.0625q0.328125 0 0.546875 0.25q0.21875 0.234375 0.21875 0.8125l0 0.390625q0 0.53125 -0.125 0.71875q-0.25 0.359375 -0.671875 0.359375q-0.296875 0 -0.515625 -0.171875q-0.21875 -0.1875 -0.28125 -0.484375zm7.4765625 -0.28125l0 3.21875q0 0.515625 0.21875 0.671875q0.328125 0.265625 1.171875 0.265625q1.21875 0 2.265625 -0.53125q0.390625 -0.203125 0.625 -0.203125q0.3125 0 0.53125 0.234375q0.234375 0.234375 0.234375 0.578125q0 0.3125 -0.25 0.53125q-0.375 0.375 -1.515625 0.6875q-1.125 0.3125 -1.890625 0.3125q-1.5 0 -2.25 -0.640625q-0.734375 -0.65625 -0.734375 -1.59375l0 -3.53125l-0.578125 0q-0.578125 0 -0.828125 -0.21875q-0.25 -0.21875 -0.25 -0.578125q0 -0.359375 0.25 -0.578125q0.25 -0.21875 0.828125 -0.21875l0.578125 0l0 -1.453125q0 -0.578125 0.21875 -0.8125q0.21875 -0.25 0.578125 -0.25q0.359375 0 0.578125 0.25q0.21875 0.234375 0.21875 0.8125l0 1.453125l2.96875 0q0.578125 0 0.8125 0.21875q0.25 0.21875 0.25 0.578125q0 0.359375 -0.25 0.578125q-0.234375 0.21875 -0.8125 0.21875l-2.96875 0zm19.609375 0.953125l-1.484375 4.546875l-1.796875 0l-0.953125 -7.875q-0.375 -0.046875 -0.5625 -0.25q-0.1875 -0.203125 -0.1875 -0.53125q0 -0.375 0.25 -0.59375q0.25 -0.234375 0.828125 -0.234375l2.125 0.015625q0.578125 0 0.828125 0.21875q0.25 0.21875 0.25 0.578125q0 0.359375 -0.25 0.578125q-0.25 0.21875 -0.828125 0.21875l-0.828125 0l0.53125 4.484375l1.25 -3.734375l1.671875 0l1.25 3.734375l0.53125 -4.484375l-0.84375 0q-0.578125 0 -0.828125 -0.21875q-0.234375 -0.21875 -0.234375 -0.578125q0 -0.359375 0.234375 -0.578125q0.25 -0.234375 0.828125 -0.234375l2.125 0.015625q0.578125 0 0.828125 0.21875q0.25 0.21875 0.25 0.578125q0 0.296875 -0.203125 0.515625q-0.1875 0.21875 -0.5625 0.28125l-0.921875 7.875l-1.765625 0l-1.53125 -4.546875zm13.6171875 1.8125l-6.578125 0q0.25 0.625 0.890625 1.015625q0.640625 0.375 1.71875 0.375q0.890625 0 2.375 -0.390625q0.609375 -0.15625 0.84375 -0.15625q0.3125 0 0.53125 0.234375q0.21875 0.21875 0.21875 0.5625q0 0.3125 -0.234375 0.53125q-0.3125 0.296875 -1.53125 0.5625q-1.203125 0.265625 -2.3125 0.265625q-1.921875 0 -3.078125 -1.09375q-1.15625 -1.09375 -1.15625 -2.671875q0 -1.6875 1.25 -2.75q1.25 -1.0625 2.875 -1.0625q0.96875 0 1.78125 0.34375q0.828125 0.34375 1.21875 0.75q0.5625 0.578125 0.9375 1.421875q0.25 0.59375 0.25 1.375l0 0.6875zm-1.78125 -1.609375q-0.359375 -0.6875 -0.953125 -1.015625q-0.59375 -0.34375 -1.421875 -0.34375q-0.8125 0 -1.40625 0.34375q-0.59375 0.328125 -0.96875 1.015625l4.75 0zm5.3359375 -5.796875l0 3.59375q0.59375 -0.375 1.1875 -0.5625q0.609375 -0.203125 1.234375 -0.203125q1.65625 0 2.8125 1.15625q1.15625 1.140625 1.15625 2.765625q0 1.5625 -1.109375 2.609375q-1.09375 1.046875 -2.890625 1.046875q-0.640625 0 -1.234375 -0.171875q-0.59375 -0.171875 -1.15625 -0.484375l0 0.390625l-1.875 0q-0.578125 0 -0.828125 -0.21875q-0.25 -0.234375 -0.25 -0.59375q0 -0.34375 0.25 -0.5625q0.265625 -0.234375 0.828125 -0.234375l0.28125 0l0 -6.921875l-0.28125 0q-0.578125 0 -0.828125 -0.21875q-0.25 -0.234375 -0.25 -0.59375q0 -0.34375 0.25 -0.5625q0.25 -0.234375 0.828125 -0.234375l1.875 0zm4.796875 6.796875q0 -0.984375 -0.703125 -1.671875q-0.6875 -0.6875 -1.703125 -0.6875q-1.0 0 -1.703125 0.6875q-0.6875 0.6875 -0.6875 1.65625q0 0.875 0.625 1.453125q0.625 0.5625 1.765625 0.5625q1.140625 0 1.765625 -0.5625q0.640625 -0.578125 0.640625 -1.4375zm15.5 0.09375l0 1.640625l1.625 0q0.578125 0 0.8125 0.234375q0.25 0.21875 0.25 0.578125q0 0.34375 -0.25 0.578125q-0.234375 0.21875 -0.8125 0.21875l-3.46875 0q-0.578125 0 -0.828125 -0.21875q-0.25 -0.234375 -0.25 -0.59375q0 -0.34375 0.25 -0.5625q0.25 -0.234375 0.828125 -0.234375l0.25 0l0 -6.265625l-0.25 0q-0.578125 0 -0.828125 -0.21875q-0.25 -0.21875 -0.25 -0.578125q0 -0.359375 0.25 -0.578125q0.25 -0.234375 0.828125 -0.234375l3.6875 0.015625q1.625 0 2.5625 0.890625q0.953125 0.875 0.953125 2.15625q0 0.703125 -0.3125 1.328125q-0.25 0.46875 -0.8125 0.921875q-0.5625 0.453125 -1.15625 0.6875q-0.59375 0.234375 -1.5625 0.234375l-1.515625 0zm0 -1.609375l1.484375 0q1.046875 0 1.65625 -0.46875q0.625 -0.46875 0.625 -1.140625q0 -0.5625 -0.5 -0.984375q-0.5 -0.421875 -1.421875 -0.421875l-1.84375 0l0 3.015625zm11.9765625 4.859375l0 -0.375q-0.609375 0.3125 -1.34375 0.46875q-0.71875 0.171875 -1.3125 0.171875q-1.28125 0 -2.09375 -0.6875q-0.796875 -0.6875 -0.796875 -1.515625q0 -1.0 1.015625 -1.859375q1.03125 -0.875 2.84375 -0.875q0.734375 0 1.6875 0.15625l0 -0.375q0 -0.359375 -0.3125 -0.578125q-0.3125 -0.234375 -1.171875 -0.234375q-0.71875 0 -1.84375 0.28125q-0.421875 0.09375 -0.65625 0.09375q-0.328125 0 -0.546875 -0.21875q-0.21875 -0.234375 -0.21875 -0.59375q0 -0.203125 0.078125 -0.34375q0.078125 -0.15625 0.21875 -0.25q0.140625 -0.09375 0.578125 -0.21875q0.59375 -0.15625 1.203125 -0.25q0.625 -0.109375 1.125 -0.109375q1.5 0 2.3125 0.65625q0.828125 0.640625 0.828125 1.75l0 3.296875l0.28125 0q0.578125 0 0.8125 0.234375q0.25 0.21875 0.25 0.578125q0 0.34375 -0.25 0.578125q-0.234375 0.21875 -0.8125 0.21875l-1.875 0zm0 -2.875q-0.96875 -0.1875 -1.78125 -0.1875q-0.96875 0 -1.671875 0.484375q-0.4375 0.296875 -0.4375 0.609375q0 0.234375 0.203125 0.375q0.390625 0.25 1.078125 0.25q0.578125 0 1.296875 -0.21875q0.734375 -0.234375 1.3125 -0.625l0 -0.6875zm9.9140625 -3.75l0 -0.46875l1.875 0q0.578125 0 0.828125 0.21875q0.25 0.21875 0.25 0.578125q0 0.359375 -0.25 0.578125q-0.25 0.21875 -0.828125 0.21875l-0.265625 0l0 5.84375q0 0.84375 -0.359375 1.4687576q-0.359375 0.625 -1.09375 1.078125q-0.734375 0.453125 -1.65625 0.453125l-1.8125 0q-0.578125 0 -0.828125 -0.21875q-0.234375 -0.21875 -0.234375 -0.578125q0 -0.359375 0.234375 -0.578125q0.25 -0.21875 0.828125 -0.21875l1.765625 0q0.734375 0 1.140625 -0.40625q0.40625 -0.39063263 0.40625 -1.0000076l0 -0.796875q-0.53125 0.34375 -1.078125 0.515625q-0.546875 0.1875 -1.125 0.1875q-1.640625 0 -2.75 -1.09375q-1.09375 -1.09375 -1.09375 -2.703125q0 -1.609375 1.09375 -2.6875q1.109375 -1.09375 2.75 -1.09375q0.609375 0 1.15625 0.171875q0.546875 0.171875 1.046875 0.53125zm0 3.078125q0 -0.890625 -0.65625 -1.53125q-0.65625 -0.65625 -1.5625 -0.65625q-0.921875 0 -1.578125 0.65625q-0.640625 0.640625 -0.640625 1.53125q0 0.890625 0.640625 1.53125q0.65625 0.640625 1.578125 0.640625q0.90625 0 1.5625 -0.640625q0.65625 -0.640625 0.65625 -1.53125zm11.8671875 0.8125l-6.578125 0q0.25 0.625 0.890625 1.015625q0.640625 0.375 1.71875 0.375q0.890625 0 2.375 -0.390625q0.609375 -0.15625 0.84375 -0.15625q0.3125 0 0.53125 0.234375q0.21875 0.21875 0.21875 0.5625q0 0.3125 -0.234375 0.53125q-0.3125 0.296875 -1.53125 0.5625q-1.203125 0.265625 -2.3125 0.265625q-1.921875 0 -3.078125 -1.09375q-1.15625 -1.09375 -1.15625 -2.671875q0 -1.6875 1.25 -2.75q1.25 -1.0625 2.875 -1.0625q0.96875 0 1.78125 0.34375q0.828125 0.34375 1.21875 0.75q0.5625 0.578125 0.9375 1.421875q0.25 0.59375 0.25 1.375l0 0.6875zm-1.78125 -1.609375q-0.359375 -0.6875 -0.953125 -1.015625q-0.59375 -0.34375 -1.421875 -0.34375q-0.8125 0 -1.40625 0.34375q-0.59375 0.328125 -0.96875 1.015625l4.75 0z" fill-rule="nonzero"></path><path fill="#000000" d="m63.9302 141.20958l5.1875 2.875q0.390625 0.21875 0.515625 0.390625q0.140625 0.171875 0.140625 0.4375q0 0.328125 -0.25 0.578125q-0.234375 0.25 -0.5625 0.25q-0.203125 0 -0.625 -0.234375l-7.734375 -4.296875l7.734375 -4.296875q0.421875 -0.234375 0.625 -0.234375q0.328125 0 0.5625 0.25q0.25 0.234375 0.25 0.578125q0 0.265625 -0.140625 0.4375q-0.125 0.171875 -0.515625 0.390625l-5.1875 2.875zm14.5859375 -5.359375l-5.140625 11.0625q-0.1875 0.421875 -0.34375 0.546875q-0.203125 0.15625 -0.5 0.15625q-0.328125 0 -0.5625 -0.234375q-0.234375 -0.234375 -0.234375 -0.53125q0 -0.203125 0.1875 -0.609375l5.140625 -11.0625q0.203125 -0.421875 0.34375 -0.546875q0.21875 -0.15625 0.5 -0.15625q0.328125 0 0.5625 0.234375q0.234375 0.21875 0.234375 0.515625q0 0.21875 -0.1875 0.625zm5.8984375 4.421875l0 3.21875q0 0.515625 0.21875 0.671875q0.328125 0.265625 1.171875 0.265625q1.21875 0 2.265625 -0.53125q0.390625 -0.203125 0.625 -0.203125q0.3125 0 0.53125 0.234375q0.234375 0.234375 0.234375 0.578125q0 0.3125 -0.25 0.53125q-0.375 0.375 -1.515625 0.6875q-1.125 0.3125 -1.890625 0.3125q-1.5 0 -2.25 -0.640625q-0.734375 -0.65625 -0.734375 -1.59375l0 -3.53125l-0.578125 0q-0.578125 0 -0.828125 -0.21875q-0.25 -0.21875 -0.25 -0.578125q0 -0.359375 0.25 -0.578125q0.25 -0.21875 0.828125 -0.21875l0.578125 0l0 -1.453125q0 -0.578125 0.21875 -0.8125q0.21875 -0.25 0.578125 -0.25q0.359375 0 0.578125 0.25q0.21875 0.234375 0.21875 0.8125l0 1.453125l2.96875 0q0.578125 0 0.8125 0.21875q0.25 0.21875 0.25 0.578125q0 0.359375 -0.25 0.578125q-0.234375 0.21875 -0.8125 0.21875l-2.96875 0zm10.5703125 -4.640625l0 1.703125l-1.90625 0l0 -1.703125l1.90625 0zm0.21875 3.046875l0 5.484375l1.921875 0q0.578125 0 0.828125 0.234375q0.25 0.21875 0.25 0.578125q0 0.34375 -0.25 0.578125q-0.25 0.21875 -0.828125 0.21875l-5.4375 0q-0.578125 0 -0.828125 -0.21875q-0.25 -0.234375 -0.25 -0.59375q0 -0.34375 0.25 -0.5625q0.25 -0.234375 0.828125 -0.234375l1.921875 0l0 -3.890625l-1.296875 0q-0.5625 0 -0.8125 -0.21875q-0.25 -0.21875 -0.25 -0.578125q0 -0.359375 0.234375 -0.578125q0.25 -0.21875 0.828125 -0.21875l2.890625 0zm8.4140625 1.59375l0 3.21875q0 0.515625 0.21875 0.671875q0.328125 0.265625 1.171875 0.265625q1.21875 0 2.265625 -0.53125q0.390625 -0.203125 0.625 -0.203125q0.3125 0 0.53125 0.234375q0.234375 0.234375 0.234375 0.578125q0 0.3125 -0.25 0.53125q-0.375 0.375 -1.515625 0.6875q-1.125 0.3125 -1.890625 0.3125q-1.5 0 -2.25 -0.640625q-0.734375 -0.65625 -0.734375 -1.59375l0 -3.53125l-0.578125 0q-0.578125 0 -0.828125 -0.21875q-0.25 -0.21875 -0.25 -0.578125q0 -0.359375 0.25 -0.578125q0.25 -0.21875 0.828125 -0.21875l0.578125 0l0 -1.453125q0 -0.578125 0.21875 -0.8125q0.21875 -0.25 0.578125 -0.25q0.359375 0 0.578125 0.25q0.21875 0.234375 0.21875 0.8125l0 1.453125l2.96875 0q0.578125 0 0.8125 0.21875q0.25 0.21875 0.25 0.578125q0 0.359375 -0.25 0.578125q-0.234375 0.21875 -0.8125 0.21875l-2.96875 0zm10.8046875 -4.640625l0 8.53125l1.921875 0q0.578125 0 0.8125 0.234375q0.25 0.21875 0.25 0.578125q0 0.34375 -0.25 0.578125q-0.234375 0.21875 -0.8125 0.21875l-5.453125 0q-0.578125 0 -0.828125 -0.21875q-0.234375 -0.234375 -0.234375 -0.59375q0 -0.34375 0.234375 -0.5625q0.25 -0.234375 0.828125 -0.234375l1.921875 0l0 -6.921875l-1.28125 0q-0.578125 0 -0.828125 -0.21875q-0.25 -0.234375 -0.25 -0.59375q0 -0.34375 0.25 -0.5625q0.25 -0.234375 0.828125 -0.234375l2.890625 0zm12.8203125 7.40625l-6.578125 0q0.25 0.625 0.890625 1.015625q0.640625 0.375 1.71875 0.375q0.890625 0 2.375 -0.390625q0.609375 -0.15625 0.84375 -0.15625q0.3125 0 0.53125 0.234375q0.21875 0.21875 0.21875 0.5625q0 0.3125 -0.234375 0.53125q-0.3125 0.296875 -1.53125 0.5625q-1.203125 0.265625 -2.3125 0.265625q-1.921875 0 -3.078125 -1.09375q-1.15625 -1.09375 -1.15625 -2.671875q0 -1.6875 1.25 -2.75q1.25 -1.0625 2.875 -1.0625q0.96875 0 1.78125 0.34375q0.828125 0.34375 1.21875 0.75q0.5625 0.578125 0.9375 1.421875q0.25 0.59375 0.25 1.375l0 0.6875zm-1.78125 -1.609375q-0.359375 -0.6875 -0.953125 -1.015625q-0.59375 -0.34375 -1.421875 -0.34375q-0.8125 0 -1.40625 0.34375q-0.59375 0.328125 -0.96875 1.015625l4.75 0zm9.054695 -0.21875l-5.1875 -2.875q-0.390625 -0.21875 -0.53125 -0.390625q-0.125 -0.171875 -0.125 -0.4375q0 -0.34375 0.234375 -0.578125q0.25 -0.25 0.578125 -0.25q0.203125 0 0.625 0.234375l7.734375 4.296875l-7.734375 4.296875q-0.421875 0.234375 -0.625 0.234375q-0.328125 0 -0.578125 -0.234375q-0.234375 -0.25 -0.234375 -0.59375q0 -0.265625 0.125 -0.4375q0.140625 -0.171875 0.53125 -0.390625l5.1875 -2.875z" fill-rule="nonzero"></path><path fill="#000000" d="m44.727074 160.20958l5.1875 2.875q0.390625 0.21875 0.515625 0.390625q0.140625 0.171875 0.140625 0.4375q0 0.328125 -0.25 0.578125q-0.234375 0.25 -0.5625 0.25q-0.203125 0 -0.625 -0.234375l-7.734375 -4.296875l7.734375 -4.296875q0.421875 -0.234375 0.625 -0.234375q0.328125 0 0.5625 0.25q0.25 0.234375 0.25 0.578125q0 0.265625 -0.140625 0.4375q-0.125 0.171875 -0.515625 0.390625l-5.1875 2.875zm14.5859375 -5.359375l-5.140625 11.0625q-0.1875 0.421875 -0.34375 0.546875q-0.203125 0.15625 -0.5 0.15625q-0.328125 0 -0.5625 -0.234375q-0.234375 -0.234375 -0.234375 -0.53125q0 -0.203125 0.1875 -0.609375l5.140625 -11.0625q0.203125 -0.421875 0.34375 -0.546875q0.21875 -0.15625 0.5 -0.15625q0.328125 0 0.5625 0.234375q0.234375 0.21875 0.234375 0.515625q0 0.21875 -0.1875 0.625zm4.6484375 -0.21875l0 3.421875q0.5 -0.296875 1.0 -0.4375q0.515625 -0.15625 1.046875 -0.15625q0.828125 0 1.46875 0.28125q0.65625 0.28125 1.078125 0.890625q0.421875 0.609375 0.421875 1.53125l0 3.0q0.609375 0 0.796875 0.125q0.375 0.234375 0.375 0.6875q0 0.34375 -0.25 0.578125q-0.234375 0.21875 -0.8125 0.21875l-1.828125 0q-0.5625 0 -0.8125 -0.21875q-0.25 -0.234375 -0.25 -0.59375q0 -0.4375 0.375 -0.671875q0.203125 -0.125 0.796875 -0.125l0 -2.890625q0 -0.625 -0.28125 -0.875q-0.359375 -0.328125 -1.078125 -0.328125q-0.53125 0 -0.953125 0.203125q-0.40625 0.203125 -1.09375 0.890625l0 3.0q0.609375 0 0.796875 0.125q0.375 0.234375 0.375 0.6875q0 0.34375 -0.25 0.578125q-0.234375 0.21875 -0.8125 0.21875l-1.828125 0q-0.578125 0 -0.828125 -0.21875q-0.234375 -0.234375 -0.234375 -0.59375q0 -0.4375 0.375 -0.671875q0.1875 -0.125 0.796875 -0.125l0 -6.921875l-0.265625 0q-0.578125 0 -0.828125 -0.21875q-0.25 -0.234375 -0.25 -0.59375q0 -0.34375 0.25 -0.5625q0.25 -0.234375 0.828125 -0.234375l1.875 0zm15.2734375 7.40625l-6.578125 0q0.25 0.625 0.890625 1.015625q0.640625 0.375 1.71875 0.375q0.890625 0 2.375 -0.390625q0.609375 -0.15625 0.84375 -0.15625q0.3125 0 0.53125 0.234375q0.21875 0.21875 0.21875 0.5625q0 0.3125 -0.234375 0.53125q-0.3125 0.296875 -1.53125 0.5625q-1.203125 0.265625 -2.3125 0.265625q-1.921875 0 -3.078125 -1.09375q-1.15625 -1.09375 -1.15625 -2.671875q0 -1.6875 1.25 -2.75q1.25 -1.0625 2.875 -1.0625q0.96875 0 1.78125 0.34375q0.828125 0.34375 1.21875 0.75q0.5625 0.578125 0.9375 1.421875q0.25 0.59375 0.25 1.375l0 0.6875zm-1.78125 -1.609375q-0.359375 -0.6875 -0.953125 -1.015625q-0.59375 -0.34375 -1.421875 -0.34375q-0.8125 0 -1.40625 0.34375q-0.59375 0.328125 -0.96875 1.015625l4.75 0zm8.8046875 4.34375l0 -0.375q-0.609375 0.3125 -1.34375 0.46875q-0.71875 0.171875 -1.3125 0.171875q-1.28125 0 -2.09375 -0.6875q-0.796875 -0.6875 -0.796875 -1.515625q0 -1.0 1.015625 -1.859375q1.03125 -0.875 2.84375 -0.875q0.734375 0 1.6875 0.15625l0 -0.375q0 -0.359375 -0.3125 -0.578125q-0.3125 -0.234375 -1.171875 -0.234375q-0.71875 0 -1.84375 0.28125q-0.421875 0.09375 -0.65625 0.09375q-0.328125 0 -0.546875 -0.21875q-0.21875 -0.234375 -0.21875 -0.59375q0 -0.203125 0.078125 -0.34375q0.078125 -0.15625 0.21875 -0.25q0.140625 -0.09375 0.578125 -0.21875q0.59375 -0.15625 1.203125 -0.25q0.625 -0.109375 1.125 -0.109375q1.5 0 2.3125 0.65625q0.828125 0.640625 0.828125 1.75l0 3.296875l0.28125 0q0.578125 0 0.8125 0.234375q0.25 0.21875 0.25 0.578125q0 0.34375 -0.25 0.578125q-0.234375 0.21875 -0.8125 0.21875l-1.875 0zm0 -2.875q-0.96875 -0.1875 -1.78125 -0.1875q-0.96875 0 -1.671875 0.484375q-0.4375 0.296875 -0.4375 0.609375q0 0.234375 0.203125 0.375q0.390625 0.25 1.078125 0.25q0.578125 0 1.296875 -0.21875q0.734375 -0.234375 1.3125 -0.625l0 -0.6875zm11.8359375 -7.265625l0 8.53125l0.265625 0q0.578125 0 0.828125 0.234375q0.25 0.21875 0.25 0.578125q0 0.34375 -0.25 0.578125q-0.25 0.21875 -0.828125 0.21875l-1.875 0l0 -0.390625q-0.546875 0.3125 -1.140625 0.484375q-0.59375 0.171875 -1.234375 0.171875q-1.8125 0 -2.921875 -1.046875q-1.09375 -1.046875 -1.09375 -2.609375q0 -1.625 1.15625 -2.765625q1.15625 -1.15625 2.828125 -1.15625q0.625 0 1.21875 0.203125q0.609375 0.1875 1.1875 0.5625l0 -1.984375l-0.265625 0q-0.578125 0 -0.828125 -0.21875q-0.25 -0.234375 -0.25 -0.578125q0 -0.359375 0.25 -0.578125q0.25 -0.234375 0.828125 -0.234375l1.875 0zm-1.609375 6.796875q0 -0.984375 -0.703125 -1.671875q-0.6875 -0.6875 -1.6875 -0.6875q-1.0 0 -1.703125 0.6875q-0.6875 0.6875 -0.6875 1.65625q0 0.875 0.625 1.453125q0.625 0.5625 1.765625 0.5625q1.125 0 1.75 -0.5625q0.640625 -0.578125 0.640625 -1.4375zm9.2265625 -1.21875l-5.1875 -2.875q-0.390625 -0.21875 -0.53125 -0.390625q-0.125 -0.171875 -0.125 -0.4375q0 -0.34375 0.234375 -0.578125q0.25 -0.25 0.578125 -0.25q0.203125 0 0.625 0.234375l7.734375 4.296875l-7.734375 4.296875q-0.421875 0.234375 -0.625 0.234375q-0.328125 0 -0.578125 -0.234375q-0.234375 -0.25 -0.234375 -0.59375q0 -0.265625 0.125 -0.4375q0.140625 -0.171875 0.53125 -0.390625l5.1875 -2.875z" fill-rule="nonzero"></path><path fill="#000000" d="m44.727074 198.20958l5.1875 2.875q0.390625 0.21875 0.515625 0.390625q0.140625 0.171875 0.140625 0.4375q0 0.328125 -0.25 0.578125q-0.234375 0.25 -0.5625 0.25q-0.203125 0 -0.625 -0.234375l-7.734375 -4.296875l7.734375 -4.296875q0.421875 -0.234375 0.625 -0.234375q0.328125 0 0.5625 0.25q0.25 0.234375 0.25 0.578125q0 0.265625 -0.140625 0.4375q-0.125 0.171875 -0.515625 0.390625l-5.1875 2.875zm9.2578125 -5.578125l0 3.59375q0.59375 -0.375 1.1875 -0.5625q0.609375 -0.203125 1.234375 -0.203125q1.65625 0 2.8125 1.15625q1.15625 1.140625 1.15625 2.765625q0 1.5625 -1.109375 2.609375q-1.09375 1.046875 -2.890625 1.046875q-0.640625 0 -1.234375 -0.171875q-0.59375 -0.171875 -1.15625 -0.484375l0 0.390625l-1.875 0q-0.578125 0 -0.828125 -0.21875q-0.25 -0.234375 -0.25 -0.59375q0 -0.34375 0.25 -0.5625q0.265625 -0.234375 0.828125 -0.234375l0.28125 0l0 -6.921875l-0.28125 0q-0.578125 0 -0.828125 -0.21875q-0.25 -0.234375 -0.25 -0.59375q0 -0.34375 0.25 -0.5625q0.25 -0.234375 0.828125 -0.234375l1.875 0zm4.796875 6.796875q0 -0.984375 -0.703125 -1.671875q-0.6875 -0.6875 -1.703125 -0.6875q-1.0 0 -1.703125 0.6875q-0.6875 0.6875 -0.6875 1.65625q0 0.875 0.625 1.453125q0.625 0.5625 1.765625 0.5625q1.140625 0 1.765625 -0.5625q0.640625 -0.578125 0.640625 -1.4375zm10.9921875 -0.078125q0 0.921875 -0.515625 1.796875q-0.515625 0.859375 -1.53125 1.375q-1.0 0.515625 -2.109375 0.515625q-1.09375 0 -2.09375 -0.5q-1.0 -0.515625 -1.53125 -1.375q-0.515625 -0.875 -0.515625 -1.828125q0 -0.953125 0.53125 -1.875q0.53125 -0.9375 1.53125 -1.46875q1.0 -0.53125 2.078125 -0.53125q1.09375 0 2.109375 0.546875q1.015625 0.546875 1.53125 1.46875q0.515625 0.90625 0.515625 1.875zm-1.609375 0.015625q0 -0.78125 -0.546875 -1.421875q-0.765625 -0.875 -2.0 -0.875q-1.078125 0 -1.8125 0.703125q-0.71875 0.6875 -0.71875 1.59375q0 0.75 0.734375 1.40625q0.734375 0.65625 1.796875 0.65625q1.078125 0 1.8125 -0.65625q0.734375 -0.65625 0.734375 -1.40625zm10.7265625 -6.734375l0 8.53125l0.265625 0q0.578125 0 0.828125 0.234375q0.25 0.21875 0.25 0.578125q0 0.34375 -0.25 0.578125q-0.25 0.21875 -0.828125 0.21875l-1.875 0l0 -0.390625q-0.546875 0.3125 -1.140625 0.484375q-0.59375 0.171875 -1.234375 0.171875q-1.8125 0 -2.921875 -1.046875q-1.09375 -1.046875 -1.09375 -2.609375q0 -1.625 1.15625 -2.765625q1.15625 -1.15625 2.828125 -1.15625q0.625 0 1.21875 0.203125q0.609375 0.1875 1.1875 0.5625l0 -1.984375l-0.265625 0q-0.578125 0 -0.828125 -0.21875q-0.25 -0.234375 -0.25 -0.578125q0 -0.359375 0.25 -0.578125q0.25 -0.234375 0.828125 -0.234375l1.875 0zm-1.609375 6.796875q0 -0.984375 -0.703125 -1.671875q-0.6875 -0.6875 -1.6875 -0.6875q-1.0 0 -1.703125 0.6875q-0.6875 0.6875 -0.6875 1.65625q0 0.875 0.625 1.453125q0.625 0.5625 1.765625 0.5625q1.125 0 1.75 -0.5625q0.640625 -0.578125 0.640625 -1.4375zm6.6328125 3.28125l-2.765625 -5.4375q-0.390625 -0.046875 -0.59375 -0.265625q-0.203125 -0.21875 -0.203125 -0.53125q0 -0.359375 0.234375 -0.578125q0.25 -0.21875 0.828125 -0.21875l1.46875 0q0.578125 0 0.8125 0.21875q0.25 0.21875 0.25 0.578125q0 0.359375 -0.25 0.578125q-0.234375 0.21875 -0.765625 0.21875l1.890625 3.6875l1.875 -3.6875q-0.515625 0 -0.765625 -0.21875q-0.25 -0.21875 -0.25 -0.578125q0 -0.359375 0.25 -0.578125q0.25 -0.21875 0.828125 -0.21875l1.5 0q0.578125 0 0.8125 0.21875q0.25 0.21875 0.25 0.578125q0 0.328125 -0.21875 0.546875q-0.203125 0.21875 -0.609375 0.25l-3.671875 7.25q0.59375 0 0.78125 0.109375q0.375 0.25 0.375 0.6875q0 0.359375 -0.25 0.578125q-0.234375 0.21875 -0.8125 0.21875l-3.5 0q-0.578125 0 -0.828125 -0.21875q-0.234375 -0.21875 -0.234375 -0.578125q0 -0.359375 0.234375 -0.578125q0.25 -0.21875 0.828125 -0.21875l1.59375 0l0.90625 -1.8125zm12.1953125 -4.5l-5.1875 -2.875q-0.390625 -0.21875 -0.53125 -0.390625q-0.125 -0.171875 -0.125 -0.4375q0 -0.34375 0.234375 -0.578125q0.25 -0.25 0.578125 -0.25q0.203125 0 0.625 0.234375l7.734375 4.296875l-7.734375 4.296875q-0.421875 0.234375 -0.625 0.234375q-0.328125 0 -0.578125 -0.234375q-0.234375 -0.25 -0.234375 -0.59375q0 -0.265625 0.125 -0.4375q0.140625 -0.171875 0.53125 -0.390625l5.1875 -2.875z" fill-rule="nonzero"></path><path fill="#000000" d="m44.727074 236.20958l5.1875 2.875q0.390625 0.21875 0.515625 0.390625q0.140625 0.171875 0.140625 0.4375q0 0.328125 -0.25 0.578125q-0.234375 0.25 -0.5625 0.25q-0.203125 0 -0.625 -0.234375l-7.734375 -4.296875l7.734375 -4.296875q0.421875 -0.234375 0.625 -0.234375q0.328125 0 0.5625 0.25q0.25 0.234375 0.25 0.578125q0 0.265625 -0.140625 0.4375q-0.125 0.171875 -0.515625 0.390625l-5.1875 2.875zm14.5859375 -5.359375l-5.140625 11.0625q-0.1875 0.421875 -0.34375 0.546875q-0.203125 0.15625 -0.5 0.15625q-0.328125 0 -0.5625 -0.234375q-0.234375 -0.234375 -0.234375 -0.53125q0 -0.203125 0.1875 -0.609375l5.140625 -11.0625q0.203125 -0.421875 0.34375 -0.546875q0.21875 -0.15625 0.5 -0.15625q0.328125 0 0.5625 0.234375q0.234375 0.21875 0.234375 0.515625q0 0.21875 -0.1875 0.625zm4.2734375 -0.21875l0 3.59375q0.59375 -0.375 1.1875 -0.5625q0.609375 -0.203125 1.234375 -0.203125q1.65625 0 2.8125 1.15625q1.15625 1.140625 1.15625 2.765625q0 1.5625 -1.109375 2.609375q-1.09375 1.046875 -2.890625 1.046875q-0.640625 0 -1.234375 -0.171875q-0.59375 -0.171875 -1.15625 -0.484375l0 0.390625l-1.875 0q-0.578125 0 -0.828125 -0.21875q-0.25 -0.234375 -0.25 -0.59375q0 -0.34375 0.25 -0.5625q0.265625 -0.234375 0.828125 -0.234375l0.28125 0l0 -6.921875l-0.28125 0q-0.578125 0 -0.828125 -0.21875q-0.25 -0.234375 -0.25 -0.59375q0 -0.34375 0.25 -0.5625q0.25 -0.234375 0.828125 -0.234375l1.875 0zm4.796875 6.796875q0 -0.984375 -0.703125 -1.671875q-0.6875 -0.6875 -1.703125 -0.6875q-1.0 0 -1.703125 0.6875q-0.6875 0.6875 -0.6875 1.65625q0 0.875 0.625 1.453125q0.625 0.5625 1.765625 0.5625q1.140625 0 1.765625 -0.5625q0.640625 -0.578125 0.640625 -1.4375zm10.9921875 -0.078125q0 0.921875 -0.515625 1.796875q-0.515625 0.859375 -1.53125 1.375q-1.0 0.515625 -2.109375 0.515625q-1.09375 0 -2.09375 -0.5q-1.0 -0.515625 -1.53125 -1.375q-0.515625 -0.875 -0.515625 -1.828125q0 -0.953125 0.53125 -1.875q0.53125 -0.9375 1.53125 -1.46875q1.0 -0.53125 2.078125 -0.53125q1.09375 0 2.109375 0.546875q1.015625 0.546875 1.53125 1.46875q0.515625 0.90625 0.515625 1.875zm-1.609375 0.015625q0 -0.78125 -0.546875 -1.421875q-0.765625 -0.875 -2.0 -0.875q-1.078125 0 -1.8125 0.703125q-0.71875 0.6875 -0.71875 1.59375q0 0.75 0.734375 1.40625q0.734375 0.65625 1.796875 0.65625q1.078125 0 1.8125 -0.65625q0.734375 -0.65625 0.734375 -1.40625zm10.7265625 -6.734375l0 8.53125l0.265625 0q0.578125 0 0.828125 0.234375q0.25 0.21875 0.25 0.578125q0 0.34375 -0.25 0.578125q-0.25 0.21875 -0.828125 0.21875l-1.875 0l0 -0.390625q-0.546875 0.3125 -1.140625 0.484375q-0.59375 0.171875 -1.234375 0.171875q-1.8125 0 -2.921875 -1.046875q-1.09375 -1.046875 -1.09375 -2.609375q0 -1.625 1.15625 -2.765625q1.15625 -1.15625 2.828125 -1.15625q0.625 0 1.21875 0.203125q0.609375 0.1875 1.1875 0.5625l0 -1.984375l-0.265625 0q-0.578125 0 -0.828125 -0.21875q-0.25 -0.234375 -0.25 -0.578125q0 -0.359375 0.25 -0.578125q0.25 -0.234375 0.828125 -0.234375l1.875 0zm-1.609375 6.796875q0 -0.984375 -0.703125 -1.671875q-0.6875 -0.6875 -1.6875 -0.6875q-1.0 0 -1.703125 0.6875q-0.6875 0.6875 -0.6875 1.65625q0 0.875 0.625 1.453125q0.625 0.5625 1.765625 0.5625q1.125 0 1.75 -0.5625q0.640625 -0.578125 0.640625 -1.4375zm6.6328125 3.28125l-2.765625 -5.4375q-0.390625 -0.046875 -0.59375 -0.265625q-0.203125 -0.21875 -0.203125 -0.53125q0 -0.359375 0.234375 -0.578125q0.25 -0.21875 0.828125 -0.21875l1.46875 0q0.578125 0 0.8125 0.21875q0.25 0.21875 0.25 0.578125q0 0.359375 -0.25 0.578125q-0.234375 0.21875 -0.765625 0.21875l1.890625 3.6875l1.875 -3.6875q-0.515625 0 -0.765625 -0.21875q-0.25 -0.21875 -0.25 -0.578125q0 -0.359375 0.25 -0.578125q0.25 -0.21875 0.828125 -0.21875l1.5 0q0.578125 0 0.8125 0.21875q0.25 0.21875 0.25 0.578125q0 0.328125 -0.21875 0.546875q-0.203125 0.21875 -0.609375 0.25l-3.671875 7.25q0.59375 0 0.78125 0.109375q0.375 0.25 0.375 0.6875q0 0.359375 -0.25 0.578125q-0.234375 0.21875 -0.8125 0.21875l-3.5 0q-0.578125 0 -0.828125 -0.21875q-0.234375 -0.21875 -0.234375 -0.578125q0 -0.359375 0.234375 -0.578125q0.25 -0.21875 0.828125 -0.21875l1.59375 0l0.90625 -1.8125zm12.1953125 -4.5l-5.1875 -2.875q-0.390625 -0.21875 -0.53125 -0.390625q-0.125 -0.171875 -0.125 -0.4375q0 -0.34375 0.234375 -0.578125q0.25 -0.25 0.578125 -0.25q0.203125 0 0.625 0.234375l7.734375 4.296875l-7.734375 4.296875q-0.421875 0.234375 -0.625 0.234375q-0.328125 0 -0.578125 -0.234375q-0.234375 -0.25 -0.234375 -0.59375q0 -0.265625 0.125 -0.4375q0.140625 -0.171875 0.53125 -0.390625l5.1875 -2.875z" fill-rule="nonzero"></path><path fill="#000000" d="m25.52395 274.20956l5.1875 2.875q0.390625 0.21875 0.515625 0.390625q0.140625 0.171875 0.140625 0.4375q0 0.328125 -0.25 0.578125q-0.234375 0.25 -0.5625 0.25q-0.203125 0 -0.625 -0.234375l-7.734375 -4.296875l7.734375 -4.296875q0.421875 -0.234375 0.625 -0.234375q0.328125 0 0.5625 0.25q0.25 0.234375 0.25 0.578125q0 0.265625 -0.140625 0.4375q-0.125 0.171875 -0.515625 0.390625l-5.1875 2.875zm14.585936 -5.359375l-5.140625 11.0625q-0.1875 0.421875 -0.34375 0.546875q-0.203125 0.15625 -0.5 0.15625q-0.328125 0 -0.5625 -0.234375q-0.234375 -0.234375 -0.234375 -0.53125q0 -0.203125 0.1875 -0.609375l5.140625 -11.0625q0.203125 -0.421875 0.34375 -0.546875q0.21875 -0.15625 0.5 -0.15625q0.328125 0 0.5625 0.234375q0.234375 0.21875 0.234375 0.515625q0 0.21875 -0.1875 0.625zm4.6484375 -0.21875l0 3.421875q0.5 -0.296875 1.0 -0.4375q0.515625 -0.15625 1.046875 -0.15625q0.828125 0 1.46875 0.28125q0.65625 0.28125 1.078125 0.890625q0.421875 0.609375 0.421875 1.53125l0 3.0q0.609375 0 0.796875 0.125q0.375 0.234375 0.375 0.6875q0 0.34375 -0.25 0.578125q-0.234375 0.21875 -0.8125 0.21875l-1.828125 0q-0.5625 0 -0.8125 -0.21875q-0.25 -0.234375 -0.25 -0.59375q0 -0.4375 0.375 -0.671875q0.203125 -0.125 0.796875 -0.125l0 -2.890625q0 -0.625 -0.28125 -0.875q-0.359375 -0.328125 -1.078125 -0.328125q-0.53125 0 -0.953125 0.203125q-0.40625 0.203125 -1.09375 0.890625l0 3.0q0.609375 0 0.796875 0.125q0.375 0.234375 0.375 0.6875q0 0.34375 -0.25 0.578125q-0.234375 0.21875 -0.8125 0.21875l-1.828125 0q-0.578125 0 -0.828125 -0.21875q-0.234375 -0.234375 -0.234375 -0.59375q0 -0.4375 0.375 -0.671875q0.1875 -0.125 0.796875 -0.125l0 -6.921875l-0.265625 0q-0.578125 0 -0.828125 -0.21875q-0.25 -0.234375 -0.25 -0.59375q0 -0.34375 0.25 -0.5625q0.25 -0.234375 0.828125 -0.234375l1.875 0zm10.8515625 4.640625l0 3.21875q0 0.515625 0.21875 0.671875q0.328125 0.265625 1.171875 0.265625q1.21875 0 2.265625 -0.53125q0.390625 -0.203125 0.625 -0.203125q0.3125 0 0.53125 0.234375q0.234375 0.234375 0.234375 0.578125q0 0.3125 -0.25 0.53125q-0.375 0.375 -1.515625 0.6875q-1.125 0.3125 -1.890625 0.3125q-1.5 0 -2.25 -0.640625q-0.734375 -0.65625 -0.734375 -1.59375l0 -3.53125l-0.578125 0q-0.578125 0 -0.828125 -0.21875q-0.25 -0.21875 -0.25 -0.578125q0 -0.359375 0.25 -0.578125q0.25 -0.21875 0.828125 -0.21875l0.578125 0l0 -1.453125q0 -0.578125 0.21875 -0.8125q0.21875 -0.25 0.578125 -0.25q0.359375 0 0.578125 0.25q0.21875 0.234375 0.21875 0.8125l0 1.453125l2.96875 0q0.578125 0 0.8125 0.21875q0.25 0.21875 0.25 0.578125q0 0.359375 -0.25 0.578125q-0.234375 0.21875 -0.8125 0.21875l-2.96875 0zm7.5234375 -1.59375l0 0.453125q0.390625 -0.390625 0.703125 -0.53125q0.328125 -0.140625 0.734375 -0.140625q0.359375 0 0.703125 0.171875q0.34375 0.171875 0.671875 0.515625q0.40625 -0.34375 0.828125 -0.515625q0.4375 -0.171875 0.875 -0.171875q0.890625 0 1.453125 0.484375q0.734375 0.625 0.734375 1.640625l0 3.578125q0.5 0 0.734375 0.234375q0.25 0.21875 0.25 0.578125q0 0.34375 -0.25 0.578125q-0.234375 0.21875 -0.8125 0.21875l-1.53125 0l0 -5.0625q0 -0.359375 -0.140625 -0.5q-0.125 -0.140625 -0.390625 -0.140625q-0.265625 0 -0.5 0.140625q-0.28125 0.1875 -0.703125 0.734375l0 3.21875q0.5 0 0.734375 0.234375q0.25 0.21875 0.25 0.578125q0 0.34375 -0.25 0.578125q-0.234375 0.21875 -0.8125 0.21875l-1.515625 0l0 -5.0625q0 -0.359375 -0.140625 -0.5q-0.140625 -0.140625 -0.40625 -0.140625q-0.28125 0 -0.5625 0.171875q-0.265625 0.171875 -0.65625 0.703125l0 3.21875q0.5 0 0.75 0.234375q0.25 0.21875 0.25 0.578125q0 0.34375 -0.25 0.578125q-0.25 0.21875 -0.828125 0.21875l-1.4375 0q-0.578125 0 -0.828125 -0.21875q-0.25 -0.234375 -0.25 -0.59375q0 -0.34375 0.25 -0.5625q0.234375 -0.234375 0.75 -0.234375l0 -3.890625q-0.515625 0 -0.75 -0.21875q-0.25 -0.234375 -0.25 -0.578125q0 -0.359375 0.25 -0.578125q0.25 -0.21875 0.828125 -0.21875l1.515625 0zm12.8828125 -3.046875l0 8.53125l1.921875 0q0.578125 0 0.8125 0.234375q0.25 0.21875 0.25 0.578125q0 0.34375 -0.25 0.578125q-0.234375 0.21875 -0.8125 0.21875l-5.453125 0q-0.578125 0 -0.828125 -0.21875q-0.234375 -0.234375 -0.234375 -0.59375q0 -0.34375 0.234375 -0.5625q0.25 -0.234375 0.828125 -0.234375l1.921875 0l0 -6.921875l-1.28125 0q-0.578125 0 -0.828125 -0.21875q-0.25 -0.234375 -0.25 -0.59375q0 -0.34375 0.25 -0.5625q0.25 -0.234375 0.828125 -0.234375l2.890625 0zm10.4921875 5.578125l-5.1875 -2.875q-0.390625 -0.21875 -0.53125 -0.390625q-0.125 -0.171875 -0.125 -0.4375q0 -0.34375 0.234375 -0.578125q0.25 -0.25 0.578125 -0.25q0.203125 0 0.625 0.234375l7.734375 4.296875l-7.734375 4.296875q-0.421875 0.234375 -0.625 0.234375q-0.328125 0 -0.578125 -0.234375q-0.234375 -0.25 -0.234375 -0.59375q0 -0.265625 0.125 -0.4375q0.140625 -0.171875 0.53125 -0.390625l5.1875 -2.875z" fill-rule="nonzero"></path></g></svg>

